<svg width="53" height="41" viewBox="0 0 53 41" fill="none" xmlns="http://www.w3.org/2000/svg">
<rect opacity="0.25" x="0.991211" y="0.735352" width="50.7946" height="39.5131" rx="19" stroke="white"/>
<path fill-rule="evenodd" clip-rule="evenodd" d="M21.741 27.2447H17.7568V17.8955H21.741V27.2447Z" fill="white"/>
<path fill-rule="evenodd" clip-rule="evenodd" d="M19.7371 15.8176H19.7145C18.5255 15.8176 17.7568 15.1247 17.7568 14.2588C17.7568 13.3746 18.5489 12.7012 19.7604 12.7012C20.972 12.7012 21.718 13.3746 21.741 14.2588C21.741 15.1247 20.972 15.8176 19.7371 15.8176Z" fill="white"/>
<path fill-rule="evenodd" clip-rule="evenodd" d="M36.3475 27.2444H32.4324V22.3575C32.4324 21.13 31.8659 20.2924 30.4485 20.2924C29.3669 20.2924 28.7226 20.8571 28.4396 21.4025C28.3361 21.5979 28.3107 21.8703 28.3107 22.1433V27.2447H24.395C24.395 27.2447 24.4466 18.9674 24.395 18.1102H28.3107V19.4041C28.8303 18.7821 29.761 17.8955 31.8397 17.8955C34.4161 17.8955 36.3476 19.2013 36.3476 22.007L36.3475 27.2444Z" fill="white"/>
</svg>
