<svg width="198" height="27" viewBox="0 0 198 27" fill="none" xmlns="http://www.w3.org/2000/svg">
<path d="M31.9148 7.27966C31.9148 12.9122 31.6601 14.3204 30.6413 14.3204C29.6224 14.3204 29.5375 13.5749 29.962 10.5929L30.4715 6.8655H22.3207C17.8208 6.8655 13.9152 6.53417 13.6605 6.03718C12.8115 4.7947 9.24552 5.0432 8.6512 6.45134C7.46254 9.59894 8.7361 10.0131 18.4151 9.51611L27.6696 9.10195V11.7526C27.6696 13.989 27.33 14.3204 25.4621 14.3204C23.6792 14.3204 23.4244 13.989 23.849 12.6637C24.3584 11.0899 24.0188 11.0071 15.4435 11.0071C9.92475 11.0071 5.76447 10.5929 4.83053 10.0131C1.68909 8.10797 -0.942929 12.0839 1.85889 14.4032C2.87774 15.2315 3.55697 15.2315 4.83053 14.486C5.76447 13.9062 9.67004 13.492 14.085 13.492C21.6415 13.492 21.7264 13.492 21.7264 15.5628C21.7264 17.3851 21.3868 17.6336 18.7547 17.6336C17.1416 17.6336 15.019 17.1366 14.0001 16.5568C12.5568 15.7285 12.1322 15.8113 11.1134 17.1366C10.2644 18.2134 10.1795 19.1246 10.7738 20.2014C11.6228 21.858 14.5096 22.355 15.3586 20.9469C15.6133 20.4499 17.8208 20.1186 20.1981 20.1186C24.0188 20.1186 24.4433 19.9529 24.0188 18.4619C23.5943 16.971 24.0188 16.8053 27.7545 16.8053H31.9148V21.7752C31.9148 26.7451 31.9148 26.7451 34.4619 26.7451C36.3298 26.7451 36.8392 26.4138 36.4996 25.5026C36.16 24.84 35.6506 24.2602 35.2261 24.2602C34.8016 24.2602 34.4619 19.3731 34.4619 13.492C34.4619 7.52815 34.8016 2.72391 35.2261 2.72391C35.6506 2.72391 36.16 2.14408 36.4996 1.48143C36.8392 0.570282 36.3298 0.238956 34.4619 0.238956H31.9148V7.27966Z" fill="white"/>
<path d="M161.817 1.48143C161.817 2.14408 162.412 2.72391 163.091 2.72391C164.195 2.72391 164.364 4.46338 164.364 13.492C164.364 22.5207 164.195 24.2602 163.091 24.2602C162.412 24.2602 161.817 24.84 161.817 25.5026C161.817 26.331 162.666 26.7451 164.364 26.7451C166.912 26.7451 166.912 26.7451 166.912 21.7752V16.8053H170.732C173.959 16.8053 174.553 17.0538 174.553 18.4619C174.553 19.8701 175.147 20.1186 178.374 20.1186C180.496 20.1186 182.958 20.5327 183.807 21.1126C187.204 23.1005 189.836 19.2074 186.779 16.7225C185.76 15.8942 185.081 15.8942 183.807 16.6396C182.958 17.2195 181.091 17.6336 179.647 17.6336C177.525 17.6336 177.1 17.3023 177.1 15.5628C177.1 13.492 177.185 13.492 184.317 13.492C188.307 13.492 192.298 13.9062 193.147 14.486C195.524 15.8942 197.647 14.7345 197.307 12.0839C197.137 10.0959 196.713 9.84744 194.93 10.0959C193.741 10.2616 188.732 10.5101 183.723 10.7586C175.317 11.0899 174.553 11.2556 174.553 12.7466C174.553 13.7405 173.959 14.3204 172.855 14.3204C171.496 14.3204 171.157 13.7405 171.157 11.7526V9.18479L180.326 9.43328C189.241 9.76461 189.411 9.76461 189.666 7.85948C190.005 5.62302 187.713 4.54621 185.506 5.87152C184.572 6.45134 180.581 6.8655 176.251 6.8655H168.61V10.5929C168.61 12.6637 168.27 14.3204 167.761 14.3204C167.251 14.3204 166.912 11.4212 166.912 7.27966V0.238956H164.364C162.666 0.238956 161.817 0.653114 161.817 1.48143Z" fill="white"/>
<path d="M149.593 7.27982C147.895 10.8416 146.536 13.8235 146.536 13.9892C146.536 14.1549 147.64 14.3205 148.998 14.3205C150.527 14.3205 151.715 13.7407 152.055 12.8295C152.564 11.6699 152.819 11.8356 153.753 13.9064C154.857 16.3085 154.772 16.3913 152.649 16.8883C151.121 17.2196 152.14 17.4681 155.621 17.551L160.885 17.6338L156.979 9.51628C154.857 5.12619 152.989 1.31593 152.819 1.2331C152.734 1.06744 151.206 3.80089 149.593 7.27982Z" fill="white"/>
<path d="M80.3105 3.22105C80.3105 4.04936 83.0275 7.19697 86.2538 10.1789C89.5651 13.1609 92.1971 16.1428 92.1971 16.9711C92.1971 17.7166 93.7253 19.5389 95.5932 20.947L98.9894 23.5977V13.2437V2.88972L96.3574 3.80087C93.8102 4.79485 93.7253 4.87768 94.065 9.1021C94.3197 11.5042 94.2348 13.4922 93.8951 13.4922C93.6404 13.4922 92.282 12.3325 90.8386 10.9244C89.4802 9.51626 86.5934 6.86564 84.3859 5.04334C81.1596 2.39273 80.3105 2.0614 80.3105 3.22105Z" fill="white"/>
<path d="M45.0749 3.88345C42.0183 5.20876 39.9806 7.27956 38.792 10.4272C38.0279 12.2495 38.1128 12.6636 39.1316 12.6636C39.8108 12.6636 40.4052 13.3263 40.4052 14.1546C40.4052 16.391 42.9523 19.6215 43.9711 18.6275C44.4805 18.1305 44.4805 17.2194 43.8862 16.1426C42.4429 13.4919 42.7825 11.504 44.9051 9.51601C47.0277 7.52805 50.5087 7.11389 52.1219 8.68769C52.886 9.43318 53.4803 9.26752 54.8388 8.10787C57.2161 6.03708 57.0463 5.54009 53.1407 4.04912C49.0653 2.47531 48.3861 2.47531 45.0749 3.88345Z" fill="white"/>
<path d="M57.3849 4.38031C57.9793 5.37429 59.1679 6.03695 60.6113 6.03695C62.3943 6.03695 63.5829 7.03093 66.2149 10.5927C68.0828 13.0776 69.8658 15.1484 70.2054 15.1484C70.7148 15.1484 76.9977 6.9481 78.9505 3.71766C79.375 3.055 78.7807 2.72368 76.6581 2.72368C74.0261 2.72368 73.3469 3.22067 70.9695 6.86526C69.4413 9.10172 68.1677 11.0069 67.9979 11.0069C67.8281 11.0069 66.5546 9.10172 65.0263 6.86526C62.649 3.22067 61.9698 2.72368 59.4226 2.72368C56.7057 2.72368 56.5359 2.88934 57.3849 4.38031Z" fill="white"/>
<path d="M107.478 4.21438C103.827 5.95384 100.431 11.5036 102.299 12.5804C102.978 12.9945 103.912 14.5683 104.421 16.1421C105.695 19.9524 107.054 18.8756 107.054 13.9885C107.054 10.3439 107.308 9.68127 109.346 8.60446C111.214 7.52765 112.148 7.52765 114.185 8.27313C116.308 9.01862 116.902 8.93579 118.006 7.77614C119.959 5.70535 119.704 5.29119 116.393 3.88305C112.572 2.39208 111.129 2.39208 107.478 4.21438Z" fill="white"/>
<path d="M121.913 13.0775C121.913 18.7929 122.083 23.4314 122.253 23.4314C122.507 23.4314 123.696 23.0173 124.885 22.6031C126.838 21.8576 127.177 21.3607 126.838 19.2899C126.498 17.0534 126.668 16.8049 128.79 16.8049C130.573 16.8049 131.592 17.6332 133.545 20.5323L135.922 24.2598H141.271C144.328 24.2598 146.535 23.9284 146.535 23.4314C146.535 22.8516 148.997 22.6031 153.243 22.7688C160.459 23.0173 161.308 22.7688 160.459 20.6152C160.035 19.5384 158.761 19.2899 154.092 19.2899C148.403 19.2899 148.233 19.207 149.082 17.6332C149.931 16.1423 149.762 15.9766 147.384 15.9766C145.092 15.9766 144.497 16.4736 143.054 19.7869L141.356 23.5143L138.13 19.1242C135.243 14.9826 134.734 14.7341 130.828 14.32C127.432 13.9886 126.583 13.5745 126.668 12.4148C126.753 11.6693 126.328 11.0067 125.649 11.0067C124.8 11.0067 124.46 9.84704 124.46 6.8651C124.46 3.71749 124.121 2.72351 123.187 2.72351C122.083 2.72351 121.913 4.46298 121.913 13.0775Z" fill="white"/>
<path d="M125.31 6.45098C125.31 8.52177 125.735 10.1784 126.159 10.1784C126.669 10.1784 127.008 9.59858 127.008 8.8531C127.008 7.85912 127.772 7.69345 130.659 7.85912C133.546 8.02478 134.225 8.43894 134.225 9.76425C134.225 11.0896 133.461 11.5037 130.829 11.9179L127.433 12.4149L131.338 12.5805C134.31 12.6634 135.499 13.0775 135.923 14.0715C136.432 15.3968 136.602 15.3968 138.131 13.5745C140.423 10.8411 140.168 7.94195 137.281 5.12567C135.074 3.05488 134.14 2.72355 130.065 2.72355H125.31V6.45098Z" fill="white"/>
<path d="M59.9341 7.27998C59.9341 7.52848 61.2925 9.76494 62.9906 12.1671C65.5377 15.8945 65.9622 17.3026 65.7075 20.2846C65.4528 23.5978 65.6226 23.8463 67.8301 24.0948C70.0376 24.3433 70.1225 24.1777 70.1225 20.6987C70.1225 18.4623 69.6131 16.64 68.9339 15.9773C68.2547 15.4803 66.4717 13.161 65.0283 10.9246C63.5 8.68812 61.802 6.86583 61.1227 6.86583C60.4435 6.86583 59.9341 7.03149 59.9341 7.27998Z" fill="white"/>
<path d="M80.9059 15.7284C80.9908 23.763 80.9908 23.8459 83.1983 24.0944C85.4058 24.3429 85.4058 24.3429 85.4058 18.4618V12.4979L88.0378 14.7344C89.4811 15.894 90.9245 16.6395 91.1792 16.391C91.4339 16.1425 91.4339 15.894 91.2641 15.7284C91.0943 15.5627 88.8019 13.7404 86.1699 11.5868C83.5379 9.43314 81.2455 7.69367 81.0757 7.69367C80.9059 7.69367 80.821 11.3383 80.9059 15.7284Z" fill="white"/>
<path d="M38.4525 13.9899C37.6884 15.3152 40.4902 20.2023 43.1223 22.0246C45.9241 24.0954 51.4428 24.1782 54.4994 22.1902C56.7069 20.7821 56.7069 20.7821 55.0088 19.1255C53.6503 17.7173 53.056 17.6345 51.4428 18.4628C50.424 18.9598 48.641 19.2083 47.4523 18.877C46.2637 18.6285 44.8203 18.7941 44.1411 19.374C42.5279 20.6993 40.5751 19.0426 39.7261 15.7294C39.3016 14.3212 38.7922 13.4929 38.4525 13.9899Z" fill="white"/>
<path d="M101.537 14.568C101.537 16.8045 103.744 20.5319 105.952 21.94C109.348 24.0936 112.319 24.3421 115.97 22.934C119.876 21.443 120.046 20.946 117.668 18.8753C116.31 17.6328 115.8 17.6328 114.697 18.4611C113.933 19.0409 112.404 19.2894 110.876 19.0409C109.518 18.7096 108.159 18.8753 107.904 19.2894C106.801 21.0289 105.018 19.9521 103.405 16.556C102.386 14.6508 101.622 13.7397 101.537 14.568Z" fill="white"/>
</svg>
