<svg width="53" height="41" viewBox="0 0 53 41" fill="none" xmlns="http://www.w3.org/2000/svg">
<rect opacity="0.25" x="1.37695" y="0.735352" width="50.7946" height="39.5131" rx="19" stroke="white"/>
<path fill-rule="evenodd" clip-rule="evenodd" d="M26.5257 17.819L26.5631 18.3132L25.9393 18.2527C23.6689 18.0207 21.6854 17.234 20.0013 15.9126L19.178 15.257L18.9659 15.7412C18.5168 16.8204 18.8037 17.9602 19.7394 18.7268C20.2383 19.1504 20.1261 19.2109 19.2653 18.9588C18.9659 18.8781 18.7039 18.8176 18.679 18.8478C18.5917 18.9184 18.8911 19.8363 19.1281 20.1994C19.4524 20.7037 20.1136 21.198 20.8371 21.4905L21.4484 21.7225L20.7249 21.7326C20.0263 21.7326 20.0013 21.7426 20.0762 21.9545C20.3257 22.6101 21.3112 23.3061 22.409 23.6087L23.1824 23.8205L22.5088 24.1432C21.5108 24.6072 20.3381 24.8695 19.1655 24.8896C18.6041 24.8997 18.1426 24.9401 18.1426 24.9703C18.1426 25.0712 19.6645 25.636 20.5502 25.858C23.2074 26.5136 26.3635 26.2312 28.7337 25.1115C30.4178 24.3147 32.1019 22.7311 32.8878 21.198C33.312 20.381 33.7361 18.8882 33.7361 18.172C33.7361 17.708 33.7735 17.6475 34.4721 17.0928C34.8838 16.77 35.2705 16.417 35.3453 16.3161C35.4701 16.1245 35.4576 16.1245 34.8214 16.2959C33.761 16.5985 33.6113 16.5582 34.1353 16.1043C34.522 15.7815 34.9836 15.1965 34.9836 15.025C34.9836 14.9948 34.7965 15.0452 34.5844 15.136C34.3598 15.2368 33.8608 15.3881 33.4866 15.4789L32.813 15.6504L32.2017 15.3175C31.8649 15.136 31.3908 14.9342 31.1413 14.8737C30.5051 14.7325 29.5321 14.7527 28.9582 14.9141C27.3989 15.368 26.4134 16.538 26.5257 17.819Z" fill="white"/>
</svg>
