<svg width="33" height="32" viewBox="0 0 33 32" fill="none" xmlns="http://www.w3.org/2000/svg">
<path opacity="0.3" d="M6.08331 5.33301H27.4166V13.333H6.08331V5.33301ZM6.08331 17.333H27.4166V19.9997H6.08331V17.333Z" fill="white"/>
<path d="M27.4167 2.66699H6.08335C4.60335 2.66699 3.41669 3.85366 3.41669 5.33366V20.0003C3.41669 21.4803 4.60335 22.667 6.08335 22.667H11.4167V29.3337L16.75 26.667L22.0834 29.3337V22.667H27.4167C28.8967 22.667 30.0834 21.4803 30.0834 20.0003V5.33366C30.0834 3.85366 28.8967 2.66699 27.4167 2.66699ZM27.4167 20.0003H6.08335V17.3337H27.4167V20.0003ZM27.4167 13.3337H6.08335V5.33366H27.4167V13.3337Z" fill="white"/>
</svg>
