<svg width="32" height="32" viewBox="0 0 32 32" fill="none" xmlns="http://www.w3.org/2000/svg">
<path d="M8.68538 2.66699C6.94672 2.83899 5.77605 3.22566 4.90138 4.10166C3.33472 5.67099 3.33472 8.19766 3.33472 13.2523V18.6123C3.33472 23.6657 3.33472 26.1937 4.90138 27.7643C6.46805 29.335 8.99072 29.3337 14.0347 29.3337H16.7107C21.7547 29.3337 24.2774 29.3337 25.8441 27.7643C27.2667 26.3377 27.3987 24.1417 27.4107 19.9697" stroke="white" stroke-width="2.5" stroke-linecap="round" stroke-linejoin="round"/>
<path d="M14.0347 9.33355L15.3721 14.0002C16.1187 15.4802 17.0561 15.8669 19.3854 16.0002C21.2374 15.9549 22.3121 15.7362 23.2294 14.9389C23.8547 14.3949 24.1374 13.5749 24.2747 12.7589L24.7334 10.0002M28.0774 7.33355V14.0002M11.4681 6.57755C13.5841 4.82155 15.4694 3.87889 19.3801 2.84155C19.8212 2.72508 20.2854 2.72738 20.7254 2.84822C24.1867 3.80022 26.0561 4.64555 28.5601 6.52555C28.6667 6.60555 28.6987 6.75489 28.6241 6.86555C27.8067 8.06822 25.9814 9.04289 21.5041 10.7789C20.5715 11.1377 19.5379 11.132 18.6094 10.7629C13.8414 8.86955 11.6494 7.85622 11.3827 6.80422C11.3741 6.76224 11.3775 6.71865 11.3926 6.67853C11.4077 6.63841 11.4339 6.6034 11.4681 6.57755Z" stroke="#FFC857" stroke-width="2.5" stroke-linecap="round" stroke-linejoin="round"/>
</svg>
