<svg width="138" height="20" viewBox="0 0 138 20" fill="none" xmlns="http://www.w3.org/2000/svg">
<path d="M22.2639 5.56422C22.2639 9.58597 22.0865 10.5914 21.3768 10.5914C20.6671 10.5914 20.6079 10.0591 20.9036 7.92995L21.2585 5.26851H15.5807C12.4461 5.26851 9.72555 5.03193 9.54812 4.67707C8.95669 3.78993 6.47267 3.96736 6.05867 4.97279C5.23066 7.22023 6.11781 7.51595 12.8601 7.16109L19.3068 6.86538V8.75796C19.3068 10.3548 19.0702 10.5914 17.769 10.5914C16.527 10.5914 16.3496 10.3548 16.6453 9.40854C17.0002 8.28481 16.7636 8.22567 10.7901 8.22567C6.94582 8.22567 4.0478 7.92995 3.39722 7.51595C1.20892 6.15566 -0.624519 8.99453 1.32721 10.6505C2.03693 11.242 2.51007 11.242 3.39722 10.7097C4.0478 10.2957 6.76839 9.99997 9.84384 9.99997C15.1076 9.99997 15.1667 9.99997 15.1667 11.4785C15.1667 12.7797 14.9302 12.9571 13.0967 12.9571C11.973 12.9571 10.4944 12.6023 9.7847 12.1883C8.77926 11.5968 8.48354 11.656 7.77382 12.6023C7.18239 13.3711 7.12325 14.0217 7.53725 14.7906C8.12868 15.9734 10.1396 16.3283 10.731 15.3229C10.9084 14.968 12.4461 14.7314 14.1022 14.7314C16.7636 14.7314 17.0593 14.6131 16.7636 13.5486C16.4679 12.484 16.7636 12.3657 19.3659 12.3657H22.2639V15.9143C22.2639 19.4629 22.2639 19.4629 24.0382 19.4629C25.3394 19.4629 25.6942 19.2263 25.4577 18.5757C25.2211 18.1026 24.8662 17.6886 24.5705 17.6886C24.2748 17.6886 24.0382 14.1991 24.0382 9.99997C24.0382 5.74165 24.2748 2.31134 24.5705 2.31134C24.8662 2.31134 25.2211 1.89734 25.4577 1.42419C25.6942 0.773619 25.3394 0.537046 24.0382 0.537046H22.2639V5.56422Z" fill="white"/>
<path d="M112.753 1.42419C112.753 1.89734 113.167 2.31134 113.64 2.31134C114.409 2.31134 114.527 3.55335 114.527 9.99997C114.527 16.4466 114.409 17.6886 113.64 17.6886C113.167 17.6886 112.753 18.1026 112.753 18.5757C112.753 19.1672 113.344 19.4629 114.527 19.4629C116.302 19.4629 116.302 19.4629 116.302 15.9143V12.3657H118.963C121.211 12.3657 121.625 12.5431 121.625 13.5486C121.625 14.554 122.039 14.7314 124.286 14.7314C125.765 14.7314 127.48 15.0271 128.071 15.4411C130.437 16.8606 132.27 14.0809 130.141 12.3066C129.431 11.7151 128.958 11.7151 128.071 12.2474C127.48 12.6614 126.179 12.9571 125.173 12.9571C123.695 12.9571 123.399 12.7206 123.399 11.4785C123.399 9.99997 123.458 9.99997 128.426 9.99997C131.206 9.99997 133.985 10.2957 134.577 10.7097C136.233 11.7151 137.712 10.8871 137.475 8.99453C137.357 7.57509 137.061 7.39767 135.819 7.57509C134.991 7.69338 131.501 7.87081 128.012 8.04824C122.157 8.28481 121.625 8.4031 121.625 9.46768C121.625 10.1774 121.211 10.5914 120.442 10.5914C119.495 10.5914 119.259 10.1774 119.259 8.75796V6.92452L125.646 7.10195C131.856 7.33852 131.975 7.33852 132.152 5.97823C132.389 4.38136 130.792 3.6125 129.254 4.55879C128.603 4.97279 125.824 5.26851 122.807 5.26851H117.485V7.92995C117.485 9.40854 117.248 10.5914 116.893 10.5914C116.538 10.5914 116.302 8.52139 116.302 5.56422V0.537046H114.527C113.344 0.537046 112.753 0.832762 112.753 1.42419Z" fill="white"/>
<path d="M104.237 5.56412C103.054 8.10728 102.107 10.2364 102.107 10.3547C102.107 10.473 102.876 10.5913 103.823 10.5913C104.887 10.5913 105.715 10.1773 105.952 9.52672C106.307 8.69872 106.484 8.817 107.135 10.2956C107.904 12.0107 107.844 12.0699 106.366 12.4247C105.301 12.6613 106.011 12.8387 108.436 12.8979L112.103 12.957L109.382 7.16099C107.904 4.0264 106.602 1.30581 106.484 1.24667C106.425 1.12838 105.36 3.08011 104.237 5.56412Z" fill="white"/>
<path d="M55.9758 2.66658C55.9758 3.25801 57.8684 5.50545 60.1159 7.63461C62.4224 9.76377 64.2559 11.8929 64.2559 12.4844C64.2559 13.0166 65.3205 14.3178 66.6216 15.3232L68.9873 17.2158V9.82291V2.43L67.1539 3.08058C65.3796 3.7903 65.3205 3.84944 65.557 6.86575C65.7345 8.5809 65.6753 10.0003 65.4388 10.0003C65.2613 10.0003 64.315 9.17234 63.3096 8.1669C62.3633 7.16146 60.3524 5.26888 58.8147 3.96773C56.5673 2.07514 55.9758 1.83857 55.9758 2.66658Z" fill="white"/>
<path d="M31.4309 3.13924C29.3018 4.08553 27.8823 5.56411 27.0543 7.81156C26.522 9.11271 26.5812 9.40842 27.2909 9.40842C27.7641 9.40842 28.1781 9.88157 28.1781 10.473C28.1781 12.0699 29.9524 14.3765 30.6621 13.6667C31.0169 13.3119 31.0169 12.6613 30.6029 11.8924C29.5975 9.99986 29.8341 8.58042 31.3127 7.16098C32.7912 5.74154 35.2161 5.44583 36.3398 6.56955C36.8721 7.10184 37.2861 6.98355 38.2324 6.15554C39.8884 4.67696 39.7701 4.3221 37.0495 3.25752C34.2107 2.1338 33.7375 2.1338 31.4309 3.13924Z" fill="white"/>
<path d="M40.0069 3.49399C40.4209 4.20371 41.2489 4.67686 42.2543 4.67686C43.4964 4.67686 44.3244 5.38658 46.1578 7.92974C47.459 9.70404 48.701 11.1826 48.9375 11.1826C49.2924 11.1826 53.669 5.32744 55.0293 3.02085C55.325 2.5477 54.911 2.31113 53.4324 2.31113C51.599 2.31113 51.1258 2.66599 49.4698 5.26829C48.4052 6.86516 47.5181 8.22545 47.3998 8.22545C47.2815 8.22545 46.3944 6.86516 45.3298 5.26829C43.6738 2.66599 43.2006 2.31113 41.4263 2.31113C39.5338 2.31113 39.4155 2.42942 40.0069 3.49399Z" fill="white"/>
<path d="M74.9015 3.37598C72.3583 4.61799 69.9926 8.58059 71.2937 9.34945C71.7669 9.64517 72.4175 10.7689 72.7723 11.8926C73.6595 14.6132 74.6058 13.8443 74.6058 10.3549C74.6058 7.75258 74.7832 7.27943 76.2026 6.51057C77.5038 5.74171 78.1544 5.74171 79.5738 6.274C81.0524 6.80629 81.4664 6.74714 82.2352 5.91914C83.5955 4.44056 83.4181 4.14484 81.1115 3.13941C78.4501 2.07483 77.4446 2.07483 74.9015 3.37598Z" fill="white"/>
<path d="M84.9557 9.70414C84.9557 13.785 85.074 17.097 85.1923 17.097C85.3698 17.097 86.1978 16.8013 87.0258 16.5056C88.3861 15.9733 88.6226 15.6185 88.3861 14.1399C88.1495 12.543 88.2678 12.3656 89.7464 12.3656C90.9884 12.3656 91.6981 12.957 93.0584 15.027L94.7144 17.6885H98.4404C100.57 17.6885 102.107 17.4519 102.107 17.097C102.107 16.683 103.822 16.5056 106.78 16.6239C111.807 16.8013 112.398 16.6239 111.807 15.0862C111.511 14.3173 110.624 14.1399 107.371 14.1399C103.408 14.1399 103.29 14.0807 103.882 12.957C104.473 11.8924 104.355 11.7742 102.699 11.7742C101.102 11.7742 100.688 12.129 99.6824 14.4947L98.4996 17.1562L96.2521 14.0216C94.2412 11.0644 93.8864 10.887 91.1658 10.5913C88.8001 10.3547 88.2086 10.059 88.2678 9.23099C88.3269 8.6987 88.0312 8.22556 87.5581 8.22556C86.9666 8.22556 86.73 7.39755 86.73 5.26839C86.73 3.02095 86.4935 2.31123 85.8429 2.31123C85.074 2.31123 84.9557 3.55324 84.9557 9.70414Z" fill="white"/>
<path d="M87.3217 4.97314C87.3217 6.45173 87.6174 7.63459 87.9131 7.63459C88.2679 7.63459 88.5045 7.22059 88.5045 6.6883C88.5045 5.97858 89.0368 5.86029 91.0477 5.97858C93.0586 6.09687 93.5317 6.39258 93.5317 7.33887C93.5317 8.28517 92.9994 8.58088 91.166 8.8766L88.8002 9.23146L91.5208 9.34975C93.5908 9.40889 94.4188 9.70461 94.7146 10.4143C95.0694 11.3606 95.1877 11.3606 96.2523 10.0595C97.8492 8.10774 97.6717 6.03772 95.6609 4.02685C94.1231 2.54827 93.4726 2.3117 90.6337 2.3117H87.3217V4.97314Z" fill="white"/>
<path d="M41.7814 5.5639C41.7814 5.74133 42.7277 7.3382 43.9105 9.05336C45.6848 11.7148 45.9805 12.7202 45.8031 14.8494C45.6257 17.2151 45.744 17.3926 47.2817 17.57C48.8194 17.7474 48.8786 17.6291 48.8786 15.1451C48.8786 13.5482 48.5237 12.2471 48.0506 11.7739C47.5774 11.4191 46.3354 9.76308 45.33 8.16621C44.2654 6.56934 43.0825 5.26819 42.6094 5.26819C42.1362 5.26819 41.7814 5.38647 41.7814 5.5639Z" fill="white"/>
<path d="M56.3898 11.5972C56.4489 17.3341 56.4489 17.3932 57.9866 17.5706C59.5244 17.7481 59.5244 17.7481 59.5244 13.5489V9.29057L61.3578 10.8874C62.3632 11.7154 63.3687 12.2477 63.5461 12.0703C63.7235 11.8929 63.7235 11.7154 63.6053 11.5972C63.487 11.4789 61.8901 10.1777 60.0567 8.64C58.2232 7.10227 56.6264 5.86026 56.5081 5.86026C56.3898 5.86026 56.3306 8.46257 56.3898 11.5972Z" fill="white"/>
<path d="M26.8179 10.3545C26.2856 11.3008 28.2374 14.7902 30.0708 16.0914C32.0225 17.5699 35.8669 17.6291 37.996 16.2096C39.5337 15.2042 39.5337 15.2042 38.3509 14.0213C37.4046 13.0159 36.9906 12.9568 35.8669 13.5482C35.1571 13.9031 33.9151 14.0805 33.0871 13.8439C32.2591 13.6665 31.2537 13.7848 30.7805 14.1988C29.6568 15.1451 28.2965 13.9622 27.7051 11.5965C27.4094 10.591 27.0545 9.99961 26.8179 10.3545Z" fill="white"/>
<path d="M70.7617 10.7687C70.7617 12.3656 72.2994 15.027 73.8371 16.0324C76.2028 17.5702 78.2729 17.7476 80.816 16.7422C83.5366 15.6776 83.6549 15.3227 81.9989 13.8441C81.0526 12.957 80.6977 12.957 79.9289 13.5484C79.3966 13.9624 78.332 14.1399 77.2674 13.9624C76.3211 13.7259 75.3748 13.8441 75.1974 14.1399C74.4285 15.3819 73.1865 14.613 72.0628 12.1881C71.3531 10.8278 70.8208 10.1773 70.7617 10.7687Z" fill="white"/>
</svg>
