<svg width="33" height="32" viewBox="0 0 33 32" fill="none" xmlns="http://www.w3.org/2000/svg">
<path d="M24.25 2.66699V5.33366M8.25004 2.66699V5.33366M4.25004 10.667H28.25M3.58337 16.3243C3.58337 10.515 3.58337 7.60966 5.25271 5.80433C6.92204 4.00033 9.61004 4.00033 14.9834 4.00033H17.5167C22.89 4.00033 25.578 4.00033 27.2474 5.80566C28.9167 7.60966 28.9167 10.515 28.9167 16.3257V17.0097C28.9167 22.819 28.9167 25.7243 27.2474 27.5297C25.578 29.3337 22.89 29.3337 17.5167 29.3337H14.9834C9.61004 29.3337 6.92204 29.3337 5.25271 27.5283C3.58337 25.7243 3.58337 22.819 3.58337 17.0083V16.3243Z" stroke="black" stroke-width="1.5" stroke-linecap="round" stroke-linejoin="round"/>
<path d="M20.25 21.912C19.9124 22.4718 19.4519 22.9473 18.9032 23.3027C18.3546 23.658 17.7323 23.8838 17.0834 23.9629C16.4346 24.0421 15.7762 23.9725 15.1583 23.7594C14.5403 23.5464 13.979 23.1954 13.5168 22.7332C13.0546 22.271 12.7036 21.7097 12.4906 21.0917C12.2775 20.4737 12.2079 19.8154 12.2871 19.1665C12.3662 18.5177 12.592 17.8954 12.9473 17.3467C13.3027 16.7981 13.7782 16.3376 14.338 16M18.9167 17.3333H18.9287" stroke="#02353C" stroke-width="1.5" stroke-linecap="round" stroke-linejoin="round"/>
</svg>
