<svg width="53" height="41" viewBox="0 0 53 41" fill="none" xmlns="http://www.w3.org/2000/svg">
<rect opacity="0.25" x="0.990723" y="0.917969" width="50.7946" height="39.5131" rx="19" stroke="white"/>
<path fill-rule="evenodd" clip-rule="evenodd" d="M21.7408 27.4283H17.7566V18.0791H21.7408V27.4283Z" fill="white"/>
<path fill-rule="evenodd" clip-rule="evenodd" d="M19.7368 16.0012H19.7142C18.5252 16.0012 17.7566 15.3083 17.7566 14.4424C17.7566 13.5582 18.5487 12.8848 19.7602 12.8848C20.9717 12.8848 21.7178 13.5582 21.7408 14.4424C21.7408 15.3083 20.9717 16.0012 19.7368 16.0012Z" fill="white"/>
<path fill-rule="evenodd" clip-rule="evenodd" d="M36.3472 27.428H32.4322V22.5411C32.4322 21.3136 31.8656 20.476 30.4483 20.476C29.3666 20.476 28.7224 21.0407 28.4394 21.5861C28.3359 21.7815 28.3105 22.0539 28.3105 22.3268V27.4283H24.3948C24.3948 27.4283 24.4464 19.151 24.3948 18.2938H28.3105V19.5877C28.8301 18.9657 29.7608 18.0791 31.8395 18.0791C34.4159 18.0791 36.3474 19.3849 36.3474 22.1906L36.3472 27.428Z" fill="white"/>
</svg>
