<svg width="53" height="41" viewBox="0 0 53 41" fill="none" xmlns="http://www.w3.org/2000/svg">
<rect opacity="0.25" x="1.37671" y="0.917969" width="50.7946" height="39.5131" rx="19" stroke="white"/>
<path fill-rule="evenodd" clip-rule="evenodd" d="M26.5257 18.0016L26.5631 18.4958L25.9393 18.4353C23.6689 18.2033 21.6854 17.4166 20.0013 16.0953L19.178 15.4396L18.9659 15.9238C18.5168 17.003 18.8037 18.1428 19.7394 18.9094C20.2383 19.333 20.1261 19.3935 19.2653 19.1414C18.9659 19.0607 18.7039 19.0002 18.679 19.0304C18.5917 19.101 18.8911 20.0189 19.1281 20.382C19.4524 20.8864 20.1136 21.3806 20.8371 21.6731L21.4484 21.9051L20.7249 21.9152C20.0263 21.9152 20.0013 21.9253 20.0762 22.1371C20.3257 22.7927 21.3112 23.4887 22.409 23.7913L23.1824 24.0031L22.5088 24.3259C21.5108 24.7898 20.3381 25.0521 19.1655 25.0723C18.6041 25.0823 18.1426 25.1227 18.1426 25.153C18.1426 25.2538 19.6645 25.8187 20.5502 26.0406C23.2074 26.6962 26.3635 26.4138 28.7337 25.2942C30.4178 24.4973 32.1019 22.9137 32.8878 21.3806C33.312 20.5636 33.7361 19.0708 33.7361 18.3546C33.7361 17.8907 33.7735 17.8301 34.4721 17.2754C34.8838 16.9526 35.2705 16.5996 35.3453 16.4987C35.4701 16.3071 35.4576 16.3071 34.8214 16.4785C33.761 16.7811 33.6113 16.7408 34.1353 16.2869C34.522 15.9641 34.9836 15.3791 34.9836 15.2076C34.9836 15.1774 34.7965 15.2278 34.5844 15.3186C34.3598 15.4195 33.8608 15.5708 33.4866 15.6615L32.813 15.833L32.2017 15.5001C31.8649 15.3186 31.3908 15.1169 31.1413 15.0563C30.5051 14.9151 29.5321 14.9353 28.9582 15.0967C27.3989 15.5506 26.4134 16.7206 26.5257 18.0016Z" fill="white"/>
</svg>
