<svg width="32" height="32" viewBox="0 0 32 32" fill="none" xmlns="http://www.w3.org/2000/svg">
<path d="M24.0002 2.66602V5.33268M8.00016 2.66602V5.33268M4.00016 10.666H28.0002M3.3335 16.3233C3.3335 10.514 3.3335 7.60868 5.00283 5.80335C6.67216 3.99935 9.36016 3.99935 14.7335 3.99935H17.2668C22.6402 3.99935 25.3282 3.99935 26.9975 5.80468C28.6668 7.60868 28.6668 10.514 28.6668 16.3247V17.0087C28.6668 22.818 28.6668 25.7233 26.9975 27.5287C25.3282 29.3327 22.6402 29.3327 17.2668 29.3327H14.7335C9.36016 29.3327 6.67216 29.3327 5.00283 27.5273C3.3335 25.7233 3.3335 22.818 3.3335 17.0073V16.3233Z" stroke="black" stroke-width="1.5" stroke-linecap="round" stroke-linejoin="round"/>
<path d="M20 21.911C19.6624 22.4708 19.2019 22.9463 18.6532 23.3017C18.1046 23.657 17.4823 23.8828 16.8334 23.962C16.1846 24.0411 15.5262 23.9715 14.9083 23.7584C14.2903 23.5454 13.729 23.1945 13.2668 22.7322C12.8046 22.27 12.4536 21.7087 12.2406 21.0907C12.0275 20.4728 11.9579 19.8144 12.0371 19.1656C12.1162 18.5167 12.342 17.8944 12.6973 17.3458C13.0527 16.7971 13.5282 16.3366 14.088 15.999M18.6667 17.3324H18.6787" stroke="#02353C" stroke-width="1.5" stroke-linecap="round" stroke-linejoin="round"/>
</svg>
