<svg width="262" height="176" viewBox="0 0 262 176" fill="none" xmlns="http://www.w3.org/2000/svg">
<g filter="url(#filter0_d_523_12835)">
<path d="M87.1432 43.4984C87.373 42.791 88.3738 42.791 88.6037 43.4984L90.1144 48.1481C90.2172 48.4644 90.512 48.6786 90.8447 48.6786L95.7336 48.6786C96.4774 48.6786 96.7867 49.6304 96.1849 50.0676L92.2297 52.9413C91.9606 53.1368 91.848 53.4834 91.9508 53.7997L93.4615 58.4494C93.6914 59.1568 92.8817 59.745 92.28 59.3078L88.3247 56.4342C88.0556 56.2387 87.6912 56.2387 87.4221 56.4342L83.4669 59.3078C82.8651 59.745 82.0555 59.1568 82.2853 58.4494L83.7961 53.7997C83.8989 53.4834 83.7863 53.1368 83.5172 52.9413L79.5619 50.0676C78.9602 49.6304 79.2694 48.6786 80.0132 48.6786L84.9022 48.6786C85.2348 48.6786 85.5296 48.4644 85.6324 48.1481L87.1432 43.4984Z" fill="#FFC857"/>
<path d="M108.642 43.4984C108.872 42.791 109.873 42.791 110.103 43.4984L111.613 48.1481C111.716 48.4644 112.011 48.6786 112.344 48.6786L117.233 48.6786C117.976 48.6786 118.286 49.6304 117.684 50.0676L113.729 52.9413C113.46 53.1368 113.347 53.4834 113.45 53.7997L114.961 58.4494C115.19 59.1568 114.381 59.745 113.779 59.3078L109.824 56.4342C109.555 56.2387 109.19 56.2387 108.921 56.4342L104.966 59.3078C104.364 59.745 103.554 59.1568 103.784 58.4494L105.295 53.7997C105.398 53.4834 105.285 53.1368 105.016 52.9413L101.061 50.0676C100.459 49.6304 100.768 48.6786 101.512 48.6786L106.401 48.6786C106.734 48.6786 107.029 48.4644 107.131 48.1481L108.642 43.4984Z" fill="#FFC857"/>
<path d="M130.141 43.4984C130.371 42.791 131.371 42.791 131.601 43.4984L133.112 48.1481C133.215 48.4644 133.51 48.6786 133.842 48.6786L138.731 48.6786C139.475 48.6786 139.784 49.6304 139.182 50.0676L135.227 52.9413C134.958 53.1368 134.846 53.4834 134.948 53.7997L136.459 58.4494C136.689 59.1568 135.879 59.745 135.278 59.3078L131.322 56.4342C131.053 56.2387 130.689 56.2387 130.42 56.4342L126.464 59.3078C125.863 59.745 125.053 59.1568 125.283 58.4494L126.794 53.7997C126.896 53.4834 126.784 53.1368 126.515 52.9413L122.559 50.0676C121.958 49.6304 122.267 48.6786 123.011 48.6786L127.9 48.6786C128.232 48.6786 128.527 48.4644 128.63 48.1481L130.141 43.4984Z" fill="#FFC857"/>
<path d="M151.64 43.4984C151.87 42.791 152.87 42.791 153.1 43.4984L154.611 48.1481C154.714 48.4644 155.009 48.6786 155.341 48.6786L160.23 48.6786C160.974 48.6786 161.283 49.6304 160.682 50.0676L156.726 52.9413C156.457 53.1368 156.345 53.4834 156.447 53.7997L157.958 58.4494C158.188 59.1568 157.378 59.745 156.777 59.3078L152.821 56.4342C152.552 56.2387 152.188 56.2387 151.919 56.4342L147.963 59.3078C147.362 59.745 146.552 59.1568 146.782 58.4494L148.293 53.7997C148.395 53.4834 148.283 53.1368 148.014 52.9413L144.058 50.0676C143.457 49.6304 143.766 48.6786 144.51 48.6786L149.399 48.6786C149.731 48.6786 150.026 48.4644 150.129 48.1481L151.64 43.4984Z" fill="#FFC857"/>
<path d="M173.138 43.4984C173.368 42.791 174.369 42.791 174.599 43.4984L176.11 48.1481C176.212 48.4644 176.507 48.6786 176.84 48.6786L181.729 48.6786C182.473 48.6786 182.782 49.6304 182.18 50.0676L178.225 52.9413C177.956 53.1368 177.843 53.4834 177.946 53.7997L179.457 58.4494C179.686 59.1568 178.877 59.745 178.275 59.3078L174.32 56.4342C174.051 56.2387 173.686 56.2387 173.417 56.4342L169.462 59.3078C168.86 59.745 168.051 59.1568 168.28 58.4494L169.791 53.7997C169.894 53.4834 169.781 53.1368 169.512 52.9413L165.557 50.0676C164.955 49.6304 165.265 48.6786 166.008 48.6786L170.897 48.6786C171.23 48.6786 171.525 48.4644 171.628 48.1481L173.138 43.4984Z" fill="#FFC857"/>
</g>
<defs>
<filter id="filter0_d_523_12835" x="-15.7814" y="-11.7283" width="286.563" height="199.632" filterUnits="userSpaceOnUse" color-interpolation-filters="sRGB">
<feFlood flood-opacity="0" result="BackgroundImageFix"/>
<feColorMatrix in="SourceAlpha" type="matrix" values="0 0 0 0 0 0 0 0 0 0 0 0 0 0 0 0 0 0 127 0" result="hardAlpha"/>
<feOffset dy="36.0873"/>
<feGaussianBlur stdDeviation="38.3907"/>
<feComposite in2="hardAlpha" operator="out"/>
<feColorMatrix type="matrix" values="0 0 0 0 0.0833333 0 0 0 0 0.0833333 0 0 0 0 0.0833333 0 0 0 0.15 0"/>
<feBlend mode="normal" in2="BackgroundImageFix" result="effect1_dropShadow_523_12835"/>
<feBlend mode="normal" in="SourceGraphic" in2="effect1_dropShadow_523_12835" result="shape"/>
</filter>
</defs>
</svg>
