<svg width="150" height="20" viewBox="0 0 150 20" fill="none" xmlns="http://www.w3.org/2000/svg">
<path d="M34.2639 5.56422C34.2639 9.58597 34.0865 10.5914 33.3768 10.5914C32.6671 10.5914 32.6079 10.0591 32.9036 7.92995L33.2585 5.26851H27.5807C24.4461 5.26851 21.7256 5.03193 21.5481 4.67707C20.9567 3.78993 18.4727 3.96736 18.0587 4.97279C17.2307 7.22023 18.1178 7.51595 24.8601 7.16109L31.3068 6.86538V8.75796C31.3068 10.3548 31.0702 10.5914 29.769 10.5914C28.527 10.5914 28.3496 10.3548 28.6453 9.40854C29.0002 8.28481 28.7636 8.22567 22.7901 8.22567C18.9458 8.22567 16.0478 7.92995 15.3972 7.51595C13.2089 6.15566 11.3755 8.99453 13.3272 10.6505C14.0369 11.242 14.5101 11.242 15.3972 10.7097C16.0478 10.2957 18.7684 9.99997 21.8438 9.99997C27.1076 9.99997 27.1667 9.99997 27.1667 11.4785C27.1667 12.7797 26.9302 12.9571 25.0967 12.9571C23.973 12.9571 22.4944 12.6023 21.7847 12.1883C20.7793 11.5968 20.4835 11.656 19.7738 12.6023C19.1824 13.3711 19.1232 14.0217 19.5373 14.7906C20.1287 15.9734 22.1396 16.3283 22.731 15.3229C22.9084 14.968 24.4461 14.7314 26.1022 14.7314C28.7636 14.7314 29.0593 14.6131 28.7636 13.5486C28.4679 12.484 28.7636 12.3657 31.3659 12.3657H34.2639V15.9143C34.2639 19.4629 34.2639 19.4629 36.0382 19.4629C37.3394 19.4629 37.6942 19.2263 37.4577 18.5757C37.2211 18.1026 36.8662 17.6886 36.5705 17.6886C36.2748 17.6886 36.0382 14.1991 36.0382 9.99997C36.0382 5.74165 36.2748 2.31134 36.5705 2.31134C36.8662 2.31134 37.2211 1.89734 37.4577 1.42419C37.6942 0.773619 37.3394 0.537046 36.0382 0.537046H34.2639V5.56422Z" fill="white"/>
<path d="M124.753 1.42419C124.753 1.89734 125.167 2.31134 125.64 2.31134C126.409 2.31134 126.527 3.55335 126.527 9.99997C126.527 16.4466 126.409 17.6886 125.64 17.6886C125.167 17.6886 124.753 18.1026 124.753 18.5757C124.753 19.1672 125.344 19.4629 126.527 19.4629C128.302 19.4629 128.302 19.4629 128.302 15.9143V12.3657H130.963C133.21 12.3657 133.624 12.5431 133.624 13.5486C133.624 14.554 134.038 14.7314 136.286 14.7314C137.764 14.7314 139.48 15.0271 140.071 15.4411C142.437 16.8606 144.27 14.0809 142.141 12.3066C141.431 11.7151 140.958 11.7151 140.071 12.2474C139.48 12.6614 138.178 12.9571 137.173 12.9571C135.694 12.9571 135.399 12.7206 135.399 11.4785C135.399 9.99997 135.458 9.99997 140.426 9.99997C143.206 9.99997 145.985 10.2957 146.577 10.7097C148.233 11.7151 149.711 10.8871 149.475 8.99453C149.357 7.57509 149.061 7.39767 147.819 7.57509C146.991 7.69338 143.501 7.87081 140.012 8.04824C134.157 8.28481 133.624 8.4031 133.624 9.46768C133.624 10.1774 133.21 10.5914 132.442 10.5914C131.495 10.5914 131.259 10.1774 131.259 8.75796V6.92452L137.646 7.10195C143.856 7.33852 143.974 7.33852 144.152 5.97823C144.388 4.38136 142.792 3.6125 141.254 4.55879C140.603 4.97279 137.824 5.26851 134.807 5.26851H129.484V7.92995C129.484 9.40854 129.248 10.5914 128.893 10.5914C128.538 10.5914 128.302 8.52139 128.302 5.56422V0.537046H126.527C125.344 0.537046 124.753 0.832762 124.753 1.42419Z" fill="white"/>
<path d="M116.237 5.56412C115.054 8.10728 114.107 10.2364 114.107 10.3547C114.107 10.473 114.876 10.5913 115.823 10.5913C116.887 10.5913 117.715 10.1773 117.952 9.52672C118.307 8.69872 118.484 8.817 119.135 10.2956C119.903 12.0107 119.844 12.0699 118.366 12.4247C117.301 12.6613 118.011 12.8387 120.436 12.8979L124.103 12.957L121.382 7.16099C119.903 4.0264 118.602 1.30581 118.484 1.24667C118.425 1.12838 117.36 3.08011 116.237 5.56412Z" fill="white"/>
<path d="M67.9756 2.66658C67.9756 3.25801 69.8682 5.50545 72.1156 7.63461C74.4222 9.76377 76.2556 11.8929 76.2556 12.4844C76.2556 13.0166 77.3202 14.3178 78.6214 15.3232L80.9871 17.2158V9.82291V2.43L79.1537 3.08058C77.3794 3.7903 77.3202 3.84944 77.5568 6.86575C77.7342 8.5809 77.6751 10.0003 77.4385 10.0003C77.2611 10.0003 76.3148 9.17234 75.3093 8.1669C74.3631 7.16146 72.3522 5.26888 70.8145 3.96773C68.567 2.07514 67.9756 1.83857 67.9756 2.66658Z" fill="white"/>
<path d="M43.4309 3.13924C41.3017 4.08553 39.8823 5.56411 39.0543 7.81156C38.522 9.11271 38.5811 9.40842 39.2908 9.40842C39.764 9.40842 40.178 9.88157 40.178 10.473C40.178 12.0699 41.9523 14.3765 42.662 13.6667C43.0169 13.3119 43.0169 12.6613 42.6029 11.8924C41.5974 9.99986 41.834 8.58042 43.3126 7.16098C44.7912 5.74154 47.216 5.44583 48.3398 6.56955C48.8721 7.10184 49.2861 6.98355 50.2323 6.15554C51.8884 4.67696 51.7701 4.3221 49.0495 3.25752C46.2106 2.1338 45.7375 2.1338 43.4309 3.13924Z" fill="white"/>
<path d="M52.0068 3.49399C52.4208 4.20371 53.2488 4.67686 54.2543 4.67686C55.4963 4.67686 56.3243 5.38658 58.1577 7.92974C59.4589 9.70404 60.7009 11.1826 60.9375 11.1826C61.2923 11.1826 65.6689 5.32744 67.0292 3.02085C67.3249 2.5477 66.9109 2.31113 65.4324 2.31113C63.5989 2.31113 63.1258 2.66599 61.4698 5.26829C60.4052 6.86516 59.518 8.22545 59.3997 8.22545C59.2815 8.22545 58.3943 6.86516 57.3297 5.26829C55.6737 2.66599 55.2006 2.31113 53.4263 2.31113C51.5337 2.31113 51.4154 2.42942 52.0068 3.49399Z" fill="white"/>
<path d="M86.9013 3.37598C84.3581 4.61799 81.9924 8.58059 83.2936 9.34945C83.7667 9.64517 84.4173 10.7689 84.7721 11.8926C85.6593 14.6132 86.6056 13.8443 86.6056 10.3549C86.6056 7.75258 86.783 7.27943 88.2024 6.51057C89.5036 5.74171 90.1542 5.74171 91.5736 6.274C93.0522 6.80629 93.4662 6.74714 94.2351 5.91914C95.5954 4.44056 95.4179 4.14484 93.1113 3.13941C90.4499 2.07483 89.4445 2.07483 86.9013 3.37598Z" fill="white"/>
<path d="M96.9556 9.70414C96.9556 13.785 97.0739 17.097 97.1921 17.097C97.3696 17.097 98.1976 16.8013 99.0256 16.5056C100.386 15.9733 100.622 15.6185 100.386 14.1399C100.149 12.543 100.268 12.3656 101.746 12.3656C102.988 12.3656 103.698 12.957 105.058 15.027L106.714 17.6885H110.44C112.569 17.6885 114.107 17.4519 114.107 17.097C114.107 16.683 115.822 16.5056 118.779 16.6239C123.807 16.8013 124.398 16.6239 123.807 15.0862C123.511 14.3173 122.624 14.1399 119.371 14.1399C115.408 14.1399 115.29 14.0807 115.881 12.957C116.473 11.8924 116.355 11.7742 114.699 11.7742C113.102 11.7742 112.688 12.129 111.682 14.4947L110.499 17.1562L108.252 14.0216C106.241 11.0644 105.886 10.887 103.166 10.5913C100.8 10.3547 100.208 10.059 100.268 9.23099C100.327 8.6987 100.031 8.22556 99.5579 8.22556C98.9664 8.22556 98.7299 7.39755 98.7299 5.26839C98.7299 3.02095 98.4933 2.31123 97.8427 2.31123C97.0739 2.31123 96.9556 3.55324 96.9556 9.70414Z" fill="white"/>
<path d="M99.3218 4.97314C99.3218 6.45173 99.6175 7.63459 99.9132 7.63459C100.268 7.63459 100.505 7.22059 100.505 6.6883C100.505 5.97858 101.037 5.86029 103.048 5.97858C105.059 6.09687 105.532 6.39258 105.532 7.33887C105.532 8.28517 105 8.58088 103.166 8.8766L100.8 9.23146L103.521 9.34975C105.591 9.40889 106.419 9.70461 106.715 10.4143C107.07 11.3606 107.188 11.3606 108.252 10.0595C109.849 8.10774 109.672 6.03772 107.661 4.02685C106.123 2.54827 105.473 2.3117 102.634 2.3117H99.3218V4.97314Z" fill="white"/>
<path d="M53.7812 5.5639C53.7812 5.74133 54.7275 7.3382 55.9104 9.05336C57.6847 11.7148 57.9804 12.7202 57.803 14.8494C57.6256 17.2151 57.7438 17.3926 59.2816 17.57C60.8193 17.7474 60.8784 17.6291 60.8784 15.1451C60.8784 13.5482 60.5236 12.2471 60.0504 11.7739C59.5773 11.4191 58.3353 9.76308 57.3298 8.16621C56.2653 6.56934 55.0824 5.26819 54.6093 5.26819C54.1361 5.26819 53.7812 5.38647 53.7812 5.5639Z" fill="white"/>
<path d="M68.3899 11.5972C68.449 17.3341 68.449 17.3932 69.9868 17.5706C71.5245 17.7481 71.5245 17.7481 71.5245 13.5489V9.29057L73.3579 10.8874C74.3634 11.7154 75.3688 12.2477 75.5462 12.0703C75.7237 11.8929 75.7237 11.7154 75.6054 11.5972C75.4871 11.4789 73.8902 10.1777 72.0568 8.64C70.2233 7.10227 68.6265 5.86026 68.5082 5.86026C68.3899 5.86026 68.3308 8.46257 68.3899 11.5972Z" fill="white"/>
<path d="M38.8181 10.3545C38.2858 11.3008 40.2375 14.7902 42.0709 16.0914C44.0227 17.5699 47.867 17.6291 49.9961 16.2096C51.5339 15.2042 51.5339 15.2042 50.351 14.0213C49.4047 13.0159 48.9907 12.9568 47.867 13.5482C47.1573 13.9031 45.9152 14.0805 45.0872 13.8439C44.2592 13.6665 43.2538 13.7848 42.7807 14.1988C41.6569 15.1451 40.2966 13.9622 39.7052 11.5965C39.4095 10.591 39.0546 9.99961 38.8181 10.3545Z" fill="white"/>
<path d="M82.7617 10.7687C82.7617 12.3656 84.2994 15.027 85.8372 16.0324C88.2029 17.5702 90.2729 17.7476 92.8161 16.7422C95.5367 15.6776 95.6549 15.3227 93.9989 13.8441C93.0526 12.957 92.6978 12.957 91.9289 13.5484C91.3966 13.9624 90.3321 14.1399 89.2675 13.9624C88.3212 13.7259 87.3749 13.8441 87.1975 14.1399C86.4286 15.3819 85.1866 14.613 84.0629 12.1881C83.3532 10.8278 82.8209 10.1773 82.7617 10.7687Z" fill="white"/>
</svg>
