<svg width="32" height="32" viewBox="0 0 32 32" fill="none" xmlns="http://www.w3.org/2000/svg">
<path opacity="0.3" d="M5.3335 5.33203H26.6668V13.332H5.3335V5.33203ZM5.3335 17.332H26.6668V19.9987H5.3335V17.332Z" fill="#02353C"/>
<path d="M26.6665 2.66602H5.33317C3.85317 2.66602 2.6665 3.85268 2.6665 5.33268V19.9993C2.6665 21.4793 3.85317 22.666 5.33317 22.666H10.6665V29.3327L15.9998 26.666L21.3332 29.3327V22.666H26.6665C28.1465 22.666 29.3332 21.4793 29.3332 19.9993V5.33268C29.3332 3.85268 28.1465 2.66602 26.6665 2.66602ZM26.6665 19.9993H5.33317V17.3327H26.6665V19.9993ZM26.6665 13.3327H5.33317V5.33268H26.6665V13.3327Z" fill="#02353C"/>
</svg>
