<svg width="32" height="32" viewBox="0 0 32 32" fill="none" xmlns="http://www.w3.org/2000/svg">
<path d="M8.68514 2.66602C6.94647 2.83802 5.77581 3.22468 4.90114 4.10068C3.33447 5.67002 3.33447 8.19668 3.33447 13.2513V18.6113C3.33447 23.6647 3.33447 26.1927 4.90114 27.7633C6.46781 29.334 8.99047 29.3327 14.0345 29.3327H16.7105C21.7545 29.3327 24.2771 29.3327 25.8438 27.7633C27.2665 26.3367 27.3985 24.1407 27.4105 19.9687" stroke="white" stroke-width="2.5" stroke-linecap="round" stroke-linejoin="round"/>
<path d="M14.0346 9.33258L15.3719 13.9992C16.1186 15.4792 17.0559 15.8659 19.3853 15.9992C21.2373 15.9539 22.3119 15.7352 23.2293 14.9379C23.8546 14.3939 24.1373 13.5739 24.2746 12.7579L24.7333 9.99924M28.0773 7.33258V13.9992M11.4679 6.57658C13.5839 4.82058 15.4693 3.87791 19.3799 2.84058C19.8211 2.7241 20.2853 2.7264 20.7253 2.84724C24.1866 3.79924 26.0559 4.64458 28.5599 6.52458C28.6666 6.60458 28.6986 6.75391 28.6239 6.86458C27.8066 8.06724 25.9813 9.04191 21.5039 10.7779C20.5714 11.1367 19.5378 11.131 18.6093 10.7619C13.8413 8.86858 11.6493 7.85524 11.3826 6.80324C11.3739 6.76126 11.3774 6.71768 11.3925 6.67756C11.4076 6.63744 11.4337 6.60242 11.4679 6.57658Z" stroke="#FFC857" stroke-width="2.5" stroke-linecap="round" stroke-linejoin="round"/>
</svg>
