<svg width="32" height="32" viewBox="0 0 32 32" fill="none" xmlns="http://www.w3.org/2000/svg">
<g clip-path="url(#clip0_506_42320)">
<path d="M5 6.99902H27V21.999C27 22.2642 26.8946 22.5186 26.7071 22.7061C26.5196 22.8937 26.2652 22.999 26 22.999H21C20.7348 22.999 20.4804 22.8937 20.2929 22.7061C20.1054 22.5186 20 22.2642 20 21.999V18.999H12V25.999C12 26.2642 11.8946 26.5186 11.7071 26.7061C11.5196 26.8937 11.2652 26.999 11 26.999H6C5.73478 26.999 5.48043 26.8937 5.29289 26.7061C5.10536 26.5186 5 26.2642 5 25.999V6.99902Z" stroke="#E6FAFC" stroke-width="3" stroke-linecap="round" stroke-linejoin="round"/>
<path d="M12 14.999H5" stroke="#FFC857" stroke-width="3" stroke-linecap="round" stroke-linejoin="round"/>
<path d="M12 6.99902V18.999" stroke="#E6FAFC" stroke-width="3" stroke-linecap="round" stroke-linejoin="round"/>
<path d="M20 14.999H27" stroke="#FFC857" stroke-width="3" stroke-linecap="round" stroke-linejoin="round"/>
<path d="M20 6.99902V18.999" stroke="#E6FAFC" stroke-width="3" stroke-linecap="round" stroke-linejoin="round"/>
</g>
<defs>
<clipPath id="clip0_506_42320">
<rect width="32" height="32" fill="white" transform="translate(0 -0.000976562)"/>
</clipPath>
</defs>
</svg>
