<svg width="30" height="31" viewBox="0 0 30 31" fill="none" xmlns="http://www.w3.org/2000/svg">
<path d="M15 0.96582C6.71537 0.96582 0 7.68247 0 15.9658C0 24.2504 6.71537 30.9658 15 30.9658C23.2834 30.9658 30 24.2492 30 15.9658C30 7.68247 23.2834 0.96582 15 0.96582ZM11.3253 19.9938C11.3253 20.8044 10.6684 21.4601 9.85896 21.4601C9.04828 21.4601 8.39263 20.8044 8.39263 19.9938V13.7422C8.39263 12.9315 9.04828 12.2746 9.85896 12.2746C10.6684 12.2746 11.3253 12.9315 11.3253 13.7422V19.9938ZM21.6836 19.8883C21.6836 21.0344 21.014 21.4449 19.8679 21.4449H14.5947C13.4485 21.4449 12.5197 20.516 12.5197 19.3699V14.1831C12.5197 14.1831 12.4168 13.3203 13.3723 12.5097C13.9123 12.051 14.7141 11.1755 15.2745 10.1132C16.3875 8.00267 17.0534 7.38768 17.5604 7.55286C19.4384 8.1615 18.4994 10.9455 17.8933 12.1081H19.6086C20.7535 12.1081 21.6836 13.037 21.6836 14.1831V19.8883Z" fill="#02353C"/>
</svg>
