<svg width="135" height="86" viewBox="0 0 135 86" fill="none" xmlns="http://www.w3.org/2000/svg">
<path fill-rule="evenodd" clip-rule="evenodd" d="M91.1139 85.6792C95.0128 84.6214 101.098 82.2977 105.501 80.1852C110.768 77.6579 118.006 72.8376 121.611 69.4561C128.085 63.3825 131.472 57.205 133.418 47.9192C134.727 41.6752 134.82 40.0899 134.94 21.9662C135.069 2.69122 135.186 3.90108 133.046 2.37393C130.981 0.900039 132.203 0.966285 107.052 0.966283C82.761 0.966281 83.6114 0.930904 81.6046 2.02352C81.092 2.30242 80.3524 2.91967 79.9606 3.39504L79.2487 4.25958L79.1772 20.6818L79.1055 37.1041L79.6753 38.0493C80.3442 39.1591 82.1801 40.3958 83.5668 40.6708C84.1353 40.7833 88.8724 40.8605 95.2667 40.861L106.011 40.8622L106.011 42.0455C106.011 44.7398 104.935 49.3122 103.588 52.3417C101.796 56.3693 99.0635 59.6166 95.1048 62.4212C91.8751 64.7094 88.1352 66.5265 82.8778 68.3625C79.0335 69.7048 78.4568 70.0379 77.4006 71.5267C77.1208 71.9209 76.9344 72.6236 76.9252 73.3182C76.912 74.3237 77.0876 74.7321 78.3862 76.7158C83.3279 84.2642 83.7321 84.7432 85.7964 85.4948C87.3101 86.046 89.4838 86.1213 91.1139 85.6792ZM13.1431 85.8171C14.6044 85.6246 21.4754 83.2248 25.1961 81.6076C36.4838 76.7009 45.2949 70.1273 50.451 62.766C54.2212 57.3832 56.0888 51.9457 57.404 42.5201C57.7537 40.0153 57.8538 36.2702 57.9482 22.1559C58.0788 2.66938 58.1969 3.90333 56.054 2.37392C53.9892 0.900223 55.2092 0.966279 30.074 0.966277C5.57444 0.966274 6.4332 0.928257 4.44091 2.10029C3.91831 2.40779 3.18346 3.09957 2.80773 3.6376L2.12482 4.6158L2.13062 20.9041C2.13642 36.8839 2.1467 37.2085 2.67353 38.0393C3.29078 39.0128 4.23235 39.7711 5.55256 40.3578C6.45404 40.7587 6.73722 40.7703 17.8096 40.8622L29.1437 40.9563L29.0633 42.4618C28.8553 46.3503 27.5401 50.978 25.7134 54.2472C23.8352 57.6087 21.5859 60.0606 18.1724 62.4671C15.0658 64.6573 11.8941 66.2179 6.91547 68.0057C2.14275 69.7195 0.808824 70.5093 0.268571 71.9411C-0.370833 73.6357 -0.0341176 74.4895 3.11279 79.1585C4.86911 81.7641 6.42766 83.8158 7.02883 84.3133C8.55602 85.5774 10.7909 86.1271 13.1431 85.8171Z" fill="#E6FAFC"/>
</svg>
